<svg id="Capa_1" enable-background="new 0 0 512 512" height="512" viewBox="0 0 512 512" width="512" xmlns="http://www.w3.org/2000/svg"><g><g><circle cx="256" cy="89.654" fill="#feaee1" r="89.654"/><path d="m256 0c-5.27 0-10.432.459-15.453 1.331 42.15 7.324 74.201 44.078 74.201 88.323s-32.051 80.999-74.201 88.323c5.02.872 10.183 1.331 15.453 1.331 49.514 0 89.654-40.139 89.654-89.654s-40.14-89.654-89.654-89.654z" fill="#fe93d3"/><g><circle cx="166.346" cy="174.233" fill="#ffe179" r="89.654"/><path d="m166.346 84.579c-5.27 0-10.432.459-15.453 1.331 42.15 7.324 74.201 44.078 74.201 88.323 0 44.244-32.051 80.999-74.201 88.322 5.02.872 10.183 1.331 15.453 1.331 49.514 0 89.654-40.139 89.654-89.654s-40.139-89.653-89.654-89.653z" fill="#fbd268"/><circle cx="345.654" cy="174.233" fill="#aee69c" r="89.654"/><path d="m345.654 84.579c-5.27 0-10.432.459-15.453 1.331 42.15 7.324 74.201 44.078 74.201 88.323 0 44.244-32.051 80.999-74.201 88.322 5.02.872 10.183 1.331 15.453 1.331 49.514 0 89.654-40.139 89.654-89.654s-40.14-89.653-89.654-89.653z" fill="#89daa4"/></g></g><path d="m459.976 215.308h-407.952c-13.086 0-23.694-10.608-23.694-23.694 0-13.086 10.608-23.694 23.694-23.694h407.952c13.086 0 23.694 10.608 23.694 23.694 0 13.086-10.608 23.694-23.694 23.694z" fill="#d8e8f0"/><path d="m459.976 167.92h-30.906c13.086 0 23.694 10.608 23.694 23.694 0 13.086-10.608 23.694-23.694 23.694h30.905c13.086 0 23.694-10.608 23.694-23.694.001-13.086-10.607-23.694-23.693-23.694z" fill="#bad6e5"/><path d="m59.235 215.308v5.151c0 92.523 63.863 170.126 149.911 191.145 10.226 2.498 17.493 11.547 17.493 22.074v.56c0 11.011-7.91 20.43-18.755 22.332l-43.76 7.677c-14.782 2.593-25.565 15.432-25.565 30.441v13.191c0 2.276 1.845 4.121 4.121 4.121h226.64c2.276 0 4.121-1.845 4.121-4.121v-13.191c0-15.008-10.783-27.847-25.565-30.441l-43.76-7.677c-10.845-1.903-18.755-11.322-18.755-22.332v-.56c0-10.527 7.267-19.576 17.493-22.074 86.049-21.019 149.911-98.621 149.911-191.145v-5.151z" fill="#bad6e5"/><path d="m421.859 215.308c-1.874 19.548-9.453 71.276-49.785 119.567-30.919 37.02-67.554 55.817-93.503 65.302-19.506 7.13-28.583 29.724-19.049 48.174.081.156.162.312.244.468 16.746 31.846 51.608 41.604 70.349 44.578 7.139 1.133 12.421 7.242 12.421 14.47v.011c0 2.276-1.845 4.121-4.121 4.121h30.905c2.276 0 4.121-1.845 4.121-4.121v-13.191c0-15.008-10.783-27.847-25.565-30.441l-43.76-7.677c-11.024-1.933-18.739-11.659-18.755-22.858-.015-10.521 7.41-19.638 17.629-22.142 85.98-21.067 149.776-98.637 149.776-191.112v-5.151h-30.907z" fill="#a6cee0"/></g></svg>