<?xml version="1.0" standalone="no"?>
<!DOCTYPE svg PUBLIC "-//W3C//DTD SVG 20010904//EN"
 "http://www.w3.org/TR/2001/REC-SVG-20010904/DTD/svg10.dtd">
<svg version="1.0" xmlns="http://www.w3.org/2000/svg"
 width="300.000000pt" height="163.000000pt" viewBox="0 0 300.000000 163.000000"
 preserveAspectRatio="xMidYMid meet">

<g transform="translate(0.000000,163.000000) scale(0.100000,-0.100000)"
fill="#2B0548" stroke="none">
<path d="M945 1596 c-10 -14 -14 -33 -10 -45 5 -15 0 -21 -25 -26 -21 -5 -30
-13 -30 -26 0 -23 1 -23 45 -5 25 11 43 12 67 5 18 -5 76 -9 130 -9 83 0 97 2
100 17 2 9 2 -191 0 -444 l-3 -461 78 -30 c43 -16 106 -39 140 -52 l63 -23
140 53 140 53 0 443 0 444 104 0 c58 0 116 4 130 10 18 6 37 5 65 -5 21 -7 42
-11 45 -8 14 15 4 31 -24 37 -26 5 -30 10 -30 40 0 39 -19 59 -52 54 -17 -2
-24 -11 -26 -32 -2 -16 1 -33 7 -39 6 -6 11 -13 11 -16 0 -4 -229 -6 -508 -6
l-508 0 15 27 c30 53 -31 94 -64 44z m1098 -41 c-9 -15 -11 -15 -22 -1 -7 9
-10 23 -7 33 6 15 8 15 22 1 11 -11 13 -21 7 -33z m-1043 27 c0 -5 -9 -17 -20
-27 -20 -18 -20 -17 -20 8 0 20 5 27 20 27 11 0 20 -4 20 -8z m565 -301 c40
-18 105 -82 105 -103 0 -19 -32 -48 -53 -48 -10 0 -32 14 -47 30 -33 35 -57
38 -93 9 -78 -61 -43 -239 46 -239 45 0 55 10 59 55 3 38 5 40 40 43 46 4 53
-9 61 -104 8 -104 0 -153 -29 -160 -37 -9 -61 4 -68 37 -5 29 -9 31 -38 26
-88 -14 -180 46 -212 138 -44 129 13 283 119 320 52 18 62 18 110 -4z m-21
-157 c22 -21 22 -99 1 -90 -11 4 -15 -2 -15 -24 0 -46 -16 -36 -39 25 -26 68
-25 65 -1 65 13 0 20 7 20 20 0 24 13 26 34 4z"/>
<path d="M2410 450 c-12 -7 -16 -36 -18 -132 -1 -68 1 -150 5 -183 8 -57 9
-60 38 -63 44 -5 101 15 142 51 116 102 68 275 -89 322 -60 18 -59 17 -78 5z
m122 -108 c-3 -28 -1 -32 19 -29 35 3 34 -25 -2 -98 -45 -92 -59 -101 -59 -38
0 48 -1 50 -25 45 -22 -4 -25 -1 -25 25 0 68 43 138 79 131 12 -3 15 -13 13
-36z"/>
<path d="M101 433 c-81 -40 -116 -173 -69 -263 31 -60 77 -90 139 -90 42 0 48
-3 51 -23 3 -24 43 -36 60 -19 15 15 11 171 -3 189 -7 8 -24 13 -38 11 -21 -2
-27 -9 -31 -38 -4 -30 -9 -35 -36 -38 -43 -4 -66 26 -72 91 -3 42 0 57 18 80
26 32 56 35 86 6 28 -26 74 -20 74 10 0 27 -34 66 -74 85 -43 20 -62 20 -105
-1z"/>
<path d="M460 420 c-31 -44 -68 -139 -91 -236 -23 -98 -17 -117 34 -112 25 2
33 10 42 38 11 34 14 35 61 35 46 0 49 -2 58 -33 10 -36 42 -50 74 -33 17 9
18 16 10 68 -11 71 -34 151 -59 207 -43 98 -89 122 -129 66z m70 -75 c0 -18 4
-23 15 -19 21 8 19 -21 -4 -72 -25 -54 -41 -64 -41 -25 0 24 -4 31 -20 31 -23
0 -24 10 -10 59 15 53 60 72 60 26z"/>
<path d="M767 443 c-4 -3 -7 -50 -7 -104 0 -114 -4 -129 -35 -129 -13 0 -27
-5 -30 -10 -13 -21 55 -190 75 -190 6 0 10 23 10 50 0 49 1 50 30 50 l30 0 0
82 0 82 33 -32 c18 -18 37 -32 42 -32 5 0 21 12 37 27 34 32 37 26 40 -82 l3
-80 41 -3 42 -3 6 68 c3 37 2 122 -2 188 l-7 120 -34 3 c-29 3 -39 -3 -81 -48
l-47 -51 -43 50 c-31 39 -49 51 -69 51 -15 0 -31 -3 -34 -7z"/>
<path d="M1185 441 l-30 -6 -3 -148 c-1 -81 1 -162 6 -180 7 -29 12 -32 49
-35 37 -3 40 -5 35 -29 -5 -26 -5 -26 45 -19 65 8 153 34 153 45 0 5 -22 11
-50 15 -51 7 -62 20 -38 44 19 19 -7 32 -64 32 -38 0 -48 4 -53 20 -10 32 12
50 62 50 44 0 44 0 41 33 -3 31 -5 32 -53 37 -45 5 -50 7 -50 30 0 24 2 25 85
30 l85 5 3 30 c5 44 -18 55 -112 54 -45 -1 -94 -4 -111 -8z"/>
<path d="M1782 433 c-111 -54 -118 -268 -12 -340 54 -38 123 -30 178 20 27 25
28 41 2 67 -20 20 -20 20 -56 -5 -44 -30 -58 -31 -84 -5 -25 25 -34 61 -27
111 9 71 65 102 109 62 21 -18 42 -12 62 20 13 20 -15 54 -61 73 -42 18 -70
17 -111 -3z"/>
<path d="M2140 439 c-69 -27 -118 -122 -106 -205 18 -134 125 -203 217 -141
115 76 100 292 -23 342 -44 17 -53 18 -88 4z m64 -65 c11 -4 13 -14 9 -36 -5
-27 -4 -29 18 -26 16 2 25 -2 27 -14 4 -19 -50 -133 -74 -158 -12 -12 -14 -8
-14 33 0 43 -2 47 -25 47 -21 0 -25 5 -25 28 0 47 20 101 43 117 25 17 21 17
41 9z"/>
<path d="M2750 443 c-43 -8 -50 -28 -49 -142 1 -58 4 -133 8 -166 l6 -60 43
-3 c40 -3 42 -5 36 -29 -7 -26 -7 -26 42 -20 62 8 154 35 154 46 0 5 -23 11
-51 15 -43 6 -50 10 -44 24 17 41 12 47 -48 50 l-58 3 3 32 c3 31 5 32 51 35
48 3 48 4 45 35 -3 30 -5 32 -49 35 -34 2 -48 8 -51 20 -10 36 2 42 83 42 73
0 80 2 88 22 11 31 3 55 -22 62 -24 6 -148 6 -187 -1z"/>
<path d="M160 305 c0 -8 -7 -15 -15 -15 -19 0 -19 -9 2 -56 15 -34 18 -36 21
-16 2 12 10 22 18 22 14 0 19 35 8 64 -8 20 -34 21 -34 1z"/>
<path d="M1840 306 c0 -9 -6 -16 -14 -16 -11 0 -13 -7 -6 -29 4 -16 13 -38 19
-48 10 -17 10 -16 11 5 0 13 6 22 16 22 23 0 15 74 -8 78 -11 2 -18 -3 -18
-12z"/>
</g>
</svg>
